<mxfile host="app.diagrams.net" modified="2023-04-13T08:34:21.024Z" agent="Mozilla/5.0 (Windows NT 10.0; Win64; x64; rv:109.0) Gecko/20100101 Firefox/111.0" etag="gb09ToZWelrLxngj6WFj" version="21.1.6" type="device">
  <diagram name="Seite-1" id="juZEdE-PUfHJIWq-42ZQ">
    <mxGraphModel dx="794" dy="414" grid="1" gridSize="10" guides="1" tooltips="1" connect="1" arrows="1" fold="1" page="1" pageScale="1" pageWidth="827" pageHeight="1169" math="0" shadow="0">
      <root>
        <mxCell id="0" />
        <mxCell id="1" parent="0" />
        <mxCell id="HcoejjhB-QjD5kBkWpK4-4" value="" style="edgeStyle=orthogonalEdgeStyle;rounded=0;orthogonalLoop=1;jettySize=auto;html=1;dashed=1;endArrow=none;endFill=0;" edge="1" parent="1" source="HcoejjhB-QjD5kBkWpK4-1" target="HcoejjhB-QjD5kBkWpK4-3">
          <mxGeometry relative="1" as="geometry" />
        </mxCell>
        <mxCell id="HcoejjhB-QjD5kBkWpK4-1" value="MQTT Broker" style="rounded=0;whiteSpace=wrap;html=1;" vertex="1" parent="1">
          <mxGeometry x="80" y="40" width="120" height="60" as="geometry" />
        </mxCell>
        <mxCell id="HcoejjhB-QjD5kBkWpK4-2" value="TheThingsNetwork" style="rounded=0;whiteSpace=wrap;html=1;" vertex="1" parent="1">
          <mxGeometry x="445" y="40" width="120" height="60" as="geometry" />
        </mxCell>
        <mxCell id="HcoejjhB-QjD5kBkWpK4-9" style="edgeStyle=orthogonalEdgeStyle;rounded=0;orthogonalLoop=1;jettySize=auto;html=1;entryX=-0.033;entryY=0.153;entryDx=0;entryDy=0;entryPerimeter=0;" edge="1" parent="1">
          <mxGeometry relative="1" as="geometry">
            <mxPoint x="155" y="156" as="sourcePoint" />
            <mxPoint x="489.01" y="154.95000000000005" as="targetPoint" />
            <Array as="points">
              <mxPoint x="470" y="156" />
              <mxPoint x="470" y="155" />
            </Array>
          </mxGeometry>
        </mxCell>
        <mxCell id="HcoejjhB-QjD5kBkWpK4-10" value="Connect to service" style="edgeLabel;html=1;align=center;verticalAlign=middle;resizable=0;points=[];" vertex="1" connectable="0" parent="HcoejjhB-QjD5kBkWpK4-9">
          <mxGeometry x="-0.2" y="-3" relative="1" as="geometry">
            <mxPoint x="1" as="offset" />
          </mxGeometry>
        </mxCell>
        <mxCell id="HcoejjhB-QjD5kBkWpK4-19" style="edgeStyle=orthogonalEdgeStyle;rounded=0;orthogonalLoop=1;jettySize=auto;html=1;exitX=1;exitY=0.75;exitDx=0;exitDy=0;entryX=1;entryY=0.905;entryDx=0;entryDy=0;entryPerimeter=0;" edge="1" parent="1" source="HcoejjhB-QjD5kBkWpK4-3" target="HcoejjhB-QjD5kBkWpK4-3">
          <mxGeometry relative="1" as="geometry">
            <mxPoint x="350" y="320" as="targetPoint" />
            <Array as="points">
              <mxPoint x="260" y="290" />
              <mxPoint x="260" y="321" />
            </Array>
          </mxGeometry>
        </mxCell>
        <mxCell id="HcoejjhB-QjD5kBkWpK4-20" value="&lt;div&gt;Transform data and upload to SQL&lt;/div&gt;" style="edgeLabel;html=1;align=center;verticalAlign=middle;resizable=0;points=[];" vertex="1" connectable="0" parent="HcoejjhB-QjD5kBkWpK4-19">
          <mxGeometry x="-0.2697" y="-5" relative="1" as="geometry">
            <mxPoint y="15" as="offset" />
          </mxGeometry>
        </mxCell>
        <mxCell id="HcoejjhB-QjD5kBkWpK4-3" value="" style="rounded=0;whiteSpace=wrap;html=1;" vertex="1" parent="1">
          <mxGeometry x="125" y="140" width="30" height="200" as="geometry" />
        </mxCell>
        <mxCell id="HcoejjhB-QjD5kBkWpK4-7" value="" style="edgeStyle=orthogonalEdgeStyle;rounded=0;orthogonalLoop=1;jettySize=auto;html=1;" edge="1" parent="1" source="HcoejjhB-QjD5kBkWpK4-6" target="HcoejjhB-QjD5kBkWpK4-3">
          <mxGeometry relative="1" as="geometry">
            <Array as="points">
              <mxPoint x="20" y="140" />
            </Array>
          </mxGeometry>
        </mxCell>
        <mxCell id="HcoejjhB-QjD5kBkWpK4-6" value="" style="ellipse;whiteSpace=wrap;html=1;aspect=fixed;" vertex="1" parent="1">
          <mxGeometry x="10" y="131" width="20" height="20" as="geometry" />
        </mxCell>
        <mxCell id="HcoejjhB-QjD5kBkWpK4-17" style="edgeStyle=orthogonalEdgeStyle;rounded=0;orthogonalLoop=1;jettySize=auto;html=1;exitX=0;exitY=1;exitDx=0;exitDy=0;entryX=1;entryY=0.75;entryDx=0;entryDy=0;" edge="1" parent="1" source="HcoejjhB-QjD5kBkWpK4-8" target="HcoejjhB-QjD5kBkWpK4-3">
          <mxGeometry relative="1" as="geometry">
            <Array as="points">
              <mxPoint x="155" y="281" />
            </Array>
          </mxGeometry>
        </mxCell>
        <mxCell id="HcoejjhB-QjD5kBkWpK4-18" value="Send messages about devices" style="edgeLabel;html=1;align=center;verticalAlign=middle;resizable=0;points=[];" vertex="1" connectable="0" parent="HcoejjhB-QjD5kBkWpK4-17">
          <mxGeometry x="-0.2849" y="6" relative="1" as="geometry">
            <mxPoint as="offset" />
          </mxGeometry>
        </mxCell>
        <mxCell id="HcoejjhB-QjD5kBkWpK4-8" value="" style="rounded=0;whiteSpace=wrap;html=1;" vertex="1" parent="1">
          <mxGeometry x="490" y="131" width="30" height="150" as="geometry" />
        </mxCell>
        <mxCell id="HcoejjhB-QjD5kBkWpK4-11" value="Connection message" style="edgeStyle=orthogonalEdgeStyle;rounded=0;orthogonalLoop=1;jettySize=auto;html=1;entryX=1;entryY=0.25;entryDx=0;entryDy=0;exitX=0;exitY=1;exitDx=0;exitDy=0;" edge="1" parent="1" source="HcoejjhB-QjD5kBkWpK4-8" target="HcoejjhB-QjD5kBkWpK4-3">
          <mxGeometry relative="1" as="geometry">
            <mxPoint x="230" y="280" as="sourcePoint" />
            <mxPoint x="400" y="280" as="targetPoint" />
            <Array as="points">
              <mxPoint x="490" y="190" />
            </Array>
          </mxGeometry>
        </mxCell>
        <mxCell id="HcoejjhB-QjD5kBkWpK4-14" style="edgeStyle=orthogonalEdgeStyle;rounded=0;orthogonalLoop=1;jettySize=auto;html=1;exitX=1;exitY=0.5;exitDx=0;exitDy=0;entryX=0;entryY=0.75;entryDx=0;entryDy=0;" edge="1" parent="1" source="HcoejjhB-QjD5kBkWpK4-3" target="HcoejjhB-QjD5kBkWpK4-8">
          <mxGeometry relative="1" as="geometry">
            <mxPoint x="165" y="302" as="sourcePoint" />
            <mxPoint x="460" y="240" as="targetPoint" />
            <Array as="points">
              <mxPoint x="490" y="240" />
            </Array>
          </mxGeometry>
        </mxCell>
        <mxCell id="HcoejjhB-QjD5kBkWpK4-15" value="Subscribe to service" style="edgeLabel;html=1;align=center;verticalAlign=middle;resizable=0;points=[];" vertex="1" connectable="0" parent="HcoejjhB-QjD5kBkWpK4-14">
          <mxGeometry x="-0.2" y="-3" relative="1" as="geometry">
            <mxPoint x="1" as="offset" />
          </mxGeometry>
        </mxCell>
      </root>
    </mxGraphModel>
  </diagram>
</mxfile>
